<svg width="500" height="246" viewBox="0 0 500 246" fill="none" xmlns="http://www.w3.org/2000/svg">
<g clip-path="url(#clip0_1808_33)">
<g filter="url(#filter0_d_1808_33)">
<path d="M417.4 216.2V39.7999C417.4 23.5319 404.268 10.3999 388 10.3999H113.404C97.1359 10.3999 84.0039 23.5319 84.0039 39.7999V216.2C84.0039 232.468 97.1359 245.6 113.404 245.6H388C404.268 245.6 417.4 232.468 417.4 216.2ZM391.724 37.6439C398.192 44.1119 394.664 50.7759 391.136 54.1079L311.56 127.02L388 206.596C390.352 209.34 391.92 213.652 389.176 216.592C386.628 219.728 380.748 219.532 378.2 217.572L292.548 144.464L250.604 182.684L208.856 144.464L123.204 217.572C120.656 219.532 114.776 219.728 112.228 216.592C109.484 213.652 111.052 209.34 113.404 206.596L189.844 127.02L110.268 54.1079C106.74 50.7759 103.212 44.1119 109.68 37.6439C116.148 31.1759 122.812 34.3119 128.3 39.0159L250.604 137.8L373.104 39.0159C378.592 34.3119 385.256 31.1759 391.724 37.6439Z" fill="url(#paint0_linear_1808_33)" shape-rendering="crispEdges"/>
</g>
<rect x="39" y="212" width="430" height="18" rx="9" fill="url(#paint1_linear_1808_33)"/>
<g filter="url(#filter1_d_1808_33)">
<path d="M40.2415 214.935C34.767 214.935 30.0492 213.889 26.0881 211.797C22.1491 209.683 19.1115 206.656 16.9751 202.717C14.861 198.756 13.804 194.016 13.804 188.497C13.804 183.201 14.8722 178.572 17.0085 174.611C19.1449 170.65 22.1603 167.567 26.0547 165.364C29.9491 163.161 34.5445 162.06 39.8409 162.06C43.7131 162.06 47.218 162.661 50.3558 163.862C53.4936 165.064 56.1752 166.811 58.4006 169.103C60.6259 171.373 62.3395 174.132 63.5412 177.381C64.7429 180.63 65.3438 184.291 65.3438 188.364V192.636H19.5455V182.489H48.3864C48.3641 181.02 47.9858 179.729 47.2514 178.616C46.5393 177.482 45.5713 176.603 44.3473 175.979C43.1456 175.334 41.777 175.011 40.2415 175.011C38.7505 175.011 37.3819 175.334 36.1357 175.979C34.8894 176.603 33.888 177.47 33.1314 178.583C32.397 179.696 32.0076 180.998 31.9631 182.489V193.438C31.9631 195.084 32.308 196.553 32.9979 197.844C33.6877 199.134 34.678 200.147 35.9688 200.881C37.2595 201.616 38.8172 201.983 40.642 201.983C41.9105 201.983 43.0677 201.805 44.1136 201.449C45.1818 201.093 46.0942 200.581 46.8509 199.913C47.6075 199.223 48.1638 198.4 48.5199 197.443H65.3438C64.7652 201.004 63.3965 204.097 61.2379 206.723C59.0793 209.327 56.2197 211.352 52.6591 212.798C49.1207 214.223 44.9815 214.935 40.2415 214.935ZM72.8627 214V162.727H90.3542V172.474H90.8883C91.9565 169.27 93.7813 166.733 96.3627 164.864C98.9442 162.994 102.015 162.06 105.576 162.06C109.181 162.06 112.285 163.017 114.889 164.93C117.493 166.822 119.062 169.337 119.596 172.474H120.13C120.998 169.337 122.845 166.822 125.671 164.93C128.497 163.017 131.813 162.06 135.618 162.06C140.537 162.06 144.52 163.64 147.569 166.8C150.64 169.96 152.175 174.166 152.175 179.418V214H133.749V184.091C133.749 181.843 133.182 180.085 132.047 178.817C130.912 177.526 129.387 176.881 127.474 176.881C125.582 176.881 124.08 177.526 122.967 178.817C121.877 180.085 121.332 181.843 121.332 184.091V214H103.706V184.091C103.706 181.843 103.139 180.085 102.004 178.817C100.869 177.526 99.3448 176.881 97.4309 176.881C96.1625 176.881 95.072 177.17 94.1596 177.749C93.2472 178.327 92.5351 179.162 92.0233 180.252C91.5337 181.32 91.2889 182.6 91.2889 184.091V214H72.8627ZM175.55 214.801C172.279 214.801 169.386 214.267 166.871 213.199C164.379 212.108 162.42 210.462 160.996 208.259C159.572 206.055 158.86 203.251 158.86 199.847C158.86 197.043 159.338 194.65 160.295 192.67C161.252 190.667 162.587 189.031 164.301 187.763C166.014 186.494 168.006 185.526 170.276 184.859C172.568 184.191 175.038 183.757 177.686 183.557C180.557 183.334 182.86 183.067 184.596 182.756C186.354 182.422 187.623 181.966 188.402 181.387C189.181 180.786 189.57 179.996 189.57 179.017V178.884C189.57 177.548 189.058 176.525 188.034 175.812C187.011 175.1 185.698 174.744 184.096 174.744C182.337 174.744 180.902 175.134 179.789 175.913C178.699 176.669 178.042 177.838 177.82 179.418H160.863C161.085 176.302 162.075 173.431 163.833 170.805C165.614 168.157 168.206 166.043 171.611 164.463C175.016 162.861 179.266 162.06 184.363 162.06C188.034 162.06 191.328 162.494 194.243 163.362C197.159 164.207 199.64 165.398 201.687 166.933C203.734 168.446 205.292 170.227 206.36 172.274C207.451 174.299 207.996 176.502 207.996 178.884V214H190.772V206.79H190.371C189.347 208.704 188.101 210.25 186.632 211.43C185.186 212.609 183.528 213.466 181.659 214C179.812 214.534 177.775 214.801 175.55 214.801ZM181.559 203.185C182.961 203.185 184.274 202.895 185.498 202.317C186.744 201.738 187.756 200.904 188.535 199.813C189.314 198.723 189.703 197.399 189.703 195.841V191.568C189.214 191.768 188.691 191.958 188.135 192.136C187.6 192.314 187.022 192.481 186.399 192.636C185.798 192.792 185.153 192.937 184.463 193.07C183.795 193.204 183.094 193.326 182.36 193.438C180.935 193.66 179.767 194.027 178.855 194.539C177.965 195.029 177.297 195.641 176.852 196.375C176.429 197.087 176.218 197.888 176.218 198.778C176.218 200.203 176.718 201.293 177.72 202.05C178.721 202.806 180.001 203.185 181.559 203.185ZM216.8 214V162.727H235.226V214H216.8ZM226.013 157.386C223.521 157.386 221.385 156.563 219.604 154.916C217.824 153.269 216.934 151.289 216.934 148.974C216.934 146.66 217.824 144.679 219.604 143.033C221.385 141.386 223.521 140.562 226.013 140.562C228.528 140.562 230.664 141.386 232.422 143.033C234.203 144.679 235.093 146.66 235.093 148.974C235.093 151.289 234.203 153.269 232.422 154.916C230.664 156.563 228.528 157.386 226.013 157.386ZM263.041 145.636V214H244.615V145.636H263.041ZM306.077 179.818V193.705H274.031V179.818H306.077Z" fill="#EB0000"/>
</g>
<g filter="url(#filter2_d_1808_33)">
<path d="M336.233 214.668C332.583 214.668 329.223 213.711 326.152 211.797C323.103 209.883 320.655 206.979 318.808 203.085C316.983 199.19 316.071 194.283 316.071 188.364C316.071 182.177 317.028 177.148 318.942 173.276C320.878 169.403 323.37 166.566 326.419 164.763C329.49 162.961 332.717 162.06 336.099 162.06C338.636 162.06 340.862 162.505 342.776 163.395C344.689 164.263 346.292 165.431 347.582 166.9C348.873 168.346 349.852 169.937 350.52 171.673H350.787V145.636H369.213V214H350.92V205.588H350.52C349.808 207.324 348.784 208.882 347.449 210.261C346.136 211.619 344.534 212.698 342.642 213.499C340.773 214.278 338.636 214.668 336.233 214.668ZM343.043 200.514C344.734 200.514 346.18 200.025 347.382 199.045C348.606 198.044 349.541 196.642 350.186 194.839C350.854 193.015 351.188 190.856 351.188 188.364C351.188 185.827 350.854 183.657 350.186 181.854C349.541 180.03 348.606 178.639 347.382 177.682C346.18 176.703 344.734 176.213 343.043 176.213C341.351 176.213 339.905 176.703 338.703 177.682C337.524 178.639 336.611 180.03 335.966 181.854C335.343 183.657 335.031 185.827 335.031 188.364C335.031 190.901 335.343 193.081 335.966 194.906C336.611 196.709 337.524 198.1 338.703 199.079C339.905 200.036 341.351 200.514 343.043 200.514ZM402.827 214.935C397.353 214.935 392.635 213.889 388.674 211.797C384.735 209.683 381.697 206.656 379.561 202.717C377.447 198.756 376.39 194.016 376.39 188.497C376.39 183.201 377.458 178.572 379.594 174.611C381.731 170.65 384.746 167.567 388.641 165.364C392.535 163.161 397.13 162.06 402.427 162.06C406.299 162.06 409.804 162.661 412.942 163.862C416.08 165.064 418.761 166.811 420.987 169.103C423.212 171.373 424.925 174.132 426.127 177.381C427.329 180.63 427.93 184.291 427.93 188.364V192.636H382.131V182.489H410.972C410.95 181.02 410.572 179.729 409.837 178.616C409.125 177.482 408.157 176.603 406.933 175.979C405.732 175.334 404.363 175.011 402.827 175.011C401.336 175.011 399.968 175.334 398.722 175.979C397.475 176.603 396.474 177.47 395.717 178.583C394.983 179.696 394.594 180.998 394.549 182.489V193.438C394.549 195.084 394.894 196.553 395.584 197.844C396.274 199.134 397.264 200.147 398.555 200.881C399.845 201.616 401.403 201.983 403.228 201.983C404.496 201.983 405.654 201.805 406.7 201.449C407.768 201.093 408.68 200.581 409.437 199.913C410.193 199.223 410.75 198.4 411.106 197.443H427.93C427.351 201.004 425.982 204.097 423.824 206.723C421.665 209.327 418.806 211.352 415.245 212.798C411.707 214.223 407.567 214.935 402.827 214.935ZM485.837 162.727L468.612 214H447.249L430.024 162.727H449.385L457.664 196.642H458.198L466.476 162.727H485.837Z" fill="black"/>
</g>
</g>
<defs>
<filter id="filter0_d_1808_33" x="74.0039" y="4.3999" width="353.396" height="255.2" filterUnits="userSpaceOnUse" color-interpolation-filters="sRGB">
<feFlood flood-opacity="0" result="BackgroundImageFix"/>
<feColorMatrix in="SourceAlpha" type="matrix" values="0 0 0 0 0 0 0 0 0 0 0 0 0 0 0 0 0 0 127 0" result="hardAlpha"/>
<feOffset dy="4"/>
<feGaussianBlur stdDeviation="5"/>
<feComposite in2="hardAlpha" operator="out"/>
<feColorMatrix type="matrix" values="0 0 0 0 1 0 0 0 0 1 0 0 0 0 1 0 0 0 1 0"/>
<feBlend mode="normal" in2="BackgroundImageFix" result="effect1_dropShadow_1808_33"/>
<feBlend mode="normal" in="SourceGraphic" in2="effect1_dropShadow_1808_33" result="shape"/>
</filter>
<filter id="filter1_d_1808_33" x="3.80371" y="134.562" width="312.272" height="94.3721" filterUnits="userSpaceOnUse" color-interpolation-filters="sRGB">
<feFlood flood-opacity="0" result="BackgroundImageFix"/>
<feColorMatrix in="SourceAlpha" type="matrix" values="0 0 0 0 0 0 0 0 0 0 0 0 0 0 0 0 0 0 127 0" result="hardAlpha"/>
<feOffset dy="4"/>
<feGaussianBlur stdDeviation="5"/>
<feComposite in2="hardAlpha" operator="out"/>
<feColorMatrix type="matrix" values="0 0 0 0 1 0 0 0 0 1 0 0 0 0 1 0 0 0 1 0"/>
<feBlend mode="normal" in2="BackgroundImageFix" result="effect1_dropShadow_1808_33"/>
<feBlend mode="normal" in="SourceGraphic" in2="effect1_dropShadow_1808_33" result="shape"/>
</filter>
<filter id="filter2_d_1808_33" x="306.07" y="139.636" width="189.766" height="89.2983" filterUnits="userSpaceOnUse" color-interpolation-filters="sRGB">
<feFlood flood-opacity="0" result="BackgroundImageFix"/>
<feColorMatrix in="SourceAlpha" type="matrix" values="0 0 0 0 0 0 0 0 0 0 0 0 0 0 0 0 0 0 127 0" result="hardAlpha"/>
<feOffset dy="4"/>
<feGaussianBlur stdDeviation="5"/>
<feComposite in2="hardAlpha" operator="out"/>
<feColorMatrix type="matrix" values="0 0 0 0 1 0 0 0 0 1 0 0 0 0 1 0 0 0 1 0"/>
<feBlend mode="normal" in2="BackgroundImageFix" result="effect1_dropShadow_1808_33"/>
<feBlend mode="normal" in="SourceGraphic" in2="effect1_dropShadow_1808_33" result="shape"/>
</filter>
<linearGradient id="paint0_linear_1808_33" x1="250.702" y1="10.3999" x2="250.702" y2="245.6" gradientUnits="userSpaceOnUse">
<stop stop-color="#A39E9E"/>
<stop offset="0.78125" stop-color="#A39E9E" stop-opacity="0"/>
</linearGradient>
<linearGradient id="paint1_linear_1808_33" x1="254" y1="212" x2="254" y2="230" gradientUnits="userSpaceOnUse">
<stop stop-color="#A39E9E" stop-opacity="0.5"/>
<stop offset="1" stop-color="#A39E9E" stop-opacity="0"/>
</linearGradient>
<clipPath id="clip0_1808_33">
<rect width="500" height="246" fill="white"/>
</clipPath>
</defs>
</svg>
